<?xml version="1.0" encoding="UTF-8"?>
<svg width="1409px" height="1537px" viewBox="0 0 1409 1537" version="1.1" xmlns="http://www.w3.org/2000/svg" xmlns:xlink="http://www.w3.org/1999/xlink">
    <!-- Generator: Sketch 44.1 (41455) - http://www.bohemiancoding.com/sketch -->
    <title>bold</title>
    <desc>Created with Sketch.</desc>
    <defs></defs>
    <g id="Page-1" stroke="none" stroke-width="1" fill="none" fill-rule="evenodd">
        <g id="bold" fill-rule="nonzero" fill="#FFFFFF">
            <g id="g3003" transform="translate(704.830510, 768.423700) scale(-1, 1) rotate(-180.000000) translate(-704.830510, -768.423700) translate(0.830510, 0.423700)">
                <path d="M555,143 C605.666667,121.666667 652.333333,111 695,111 C782.333333,111 854.333333,124.666667 911,152 C967.666667,179.333333 1008.33333,217 1033,265 C1058.33333,311.666667 1071,372 1071,446 C1071,522 1057.33333,582 1030,626 C991.333333,688.666667 944.333333,730.666667 889,752 C835.666667,773.333333 753.333333,784 642,784 C592.666667,784 559,780.666667 541,774 L541,630 L540,457 L543,187 C543,177 547,162.333333 555,143 Z M541,889 C569.666667,884.333333 606,882 650,882 C766.666667,882 854.666667,903.666667 914,947 C973.333333,990.333333 1003,1065 1003,1171 C1003,1245.66667 974.666667,1308 918,1358 C862,1408 777,1433 663,1433 C628.333333,1433 585,1428.66667 533,1420 C533,1390.66667 533.666667,1365 535,1343 C539.666667,1261.66667 541.666667,1168.66667 541,1064 L540,966 C540,937.333333 540.333333,911.666667 541,889 Z M0,0 L2,94 C32,100 54.6666667,104 70,106 C121.333333,114 162.333333,124.333333 193,137 C204.333333,155 211.333333,172 214,188 C220,232 223,296.666667 223,382 L221,879 C217.666667,1049.66667 214.666667,1184.33333 212,1283 C211.333333,1341 207.666667,1377.33333 201,1392 C200.333333,1394.66667 196.333333,1398.66667 189,1404 C177,1412 154,1417 120,1419 C100,1420.33333 62,1424.66667 6,1432 L2,1515 L262,1521 L642,1534 L687,1535 C690.333333,1535 695,1535.16667 701,1535.5 C707,1535.83333 711.666667,1536 715,1536 C715.666667,1536 722.833333,1535.83333 736.5,1535.5 C750.166667,1535.16667 763.666667,1535 777,1535 L851,1535 C909.666667,1535 973.333333,1526 1042,1508 C1070.66667,1499.33333 1102.66667,1486.33333 1138,1469 C1176,1449.66667 1210,1424.33333 1240,1393 C1269.33333,1361.66667 1291,1327 1305,1289 C1319,1251 1326,1210.33333 1326,1167 C1326,1120.33333 1315.33333,1077.66667 1294,1039 C1272.66667,1000.33333 1241,965.333333 1199,934 C1181.66667,920.666667 1131.66667,895 1049,857 C1167,829.666667 1256,781 1316,711 C1377.33333,640.333333 1408,561.666667 1408,475 C1408,424.333333 1398.33333,370.666667 1379,314 C1365,272.666667 1341.33333,233.666667 1308,197 C1264,149 1217.33333,113 1168,89 C1119.33333,65 1051.66667,45 965,29 C910.333333,19 844.333333,15.3333333 767,18 L570,22 C514,23.3333333 414.666667,19.6666667 272,11 C250,9 159.333333,5.33333333 0,0 Z" id="path3005"></path>
            </g>
        </g>
    </g>
</svg>