<?xml version="1.0" encoding="UTF-8"?>
<svg width="25px" height="18px" viewBox="0 0 25 18" version="1.1" xmlns="http://www.w3.org/2000/svg" xmlns:xlink="http://www.w3.org/1999/xlink">
    <!-- Generator: Sketch 44.1 (41455) - http://www.bohemiancoding.com/sketch -->
    <title>icon</title>
    <desc>Created with Sketch.</desc>
    <defs></defs>
    <g id="Page-1" stroke="none" stroke-width="1" fill="none" fill-rule="evenodd">
        <g id="icon" fill-rule="nonzero" fill="#FFFFFF">
            <path d="M24.591,9.278 L24.591,10.225 C24.591,10.749 24.168,11.172 23.644,11.172 L17.015,11.172 C16.491,11.172 16.068,10.749 16.068,10.225 L16.068,9.278 C16.068,8.754 16.491,8.331 17.015,8.331 L23.644,8.331 C24.168,8.331 24.591,8.754 24.591,9.278 Z M15.043,17.173 C15.093,17.376 15.101,17.531 15.069,17.631 C15.034,17.731 14.926,17.784 14.743,17.784 L11.638,17.784 C11.354,17.784 11.162,17.719 11.061,17.593 C10.961,17.464 10.869,17.263 10.786,16.994 L9.982,14.012 L4.914,14.012 L4.076,17.069 C3.992,17.341 3.884,17.53 3.75,17.631 C3.617,17.731 3.433,17.784 3.199,17.784 L0.421,17.784 C0.237,17.784 0.112,17.746 0.046,17.669 C-0.022,17.593 -0.014,17.411 0.071,17.121 L4.903,1.547 C4.986,1.309 5.086,1.126 5.203,0.997 C5.319,0.871 5.545,0.806 5.88,0.806 L9.035,0.806 C9.385,0.806 9.615,0.876 9.723,1.011 C9.831,1.147 9.927,1.334 10.011,1.572 L15.043,17.173 Z M9.217,11.172 L7.53,4.918 L7.406,4.918 L5.692,11.172 L9.217,11.172 Z" id="Shape"></path>
        </g>
    </g>
</svg>