<?xml version="1.0" encoding="UTF-8"?>
<svg width="15px" height="17px" viewBox="0 0 15 17" version="1.1" xmlns="http://www.w3.org/2000/svg" xmlns:xlink="http://www.w3.org/1999/xlink">
    <!-- Generator: Sketch 45.2 (43514) - http://www.bohemiancoding.com/sketch -->
    <title>G</title>
    <desc>Created with Sketch.</desc>
    <defs></defs>
    <g id="Page-1" stroke="none" stroke-width="1" fill="none" fill-rule="evenodd">
        <g id="text" transform="translate(-1.000000, -4.000000)" fill="#FFFFFF">
            <path d="M8.82099611,14.2731445 L8.82099611,11.7404296 L15.3629883,11.7404296 L15.3629883,17.7287109 C14.7272429,18.3439483 13.8061096,18.885691 12.5995606,19.353955 C11.3930116,19.8222191 10.1710999,20.0563476 8.93378907,20.0563476 C7.36151559,20.0563476 5.99092383,19.7265169 4.82197267,19.0668457 C3.65302151,18.4071744 2.77461233,17.4638244 2.18671876,16.2367675 C1.5988252,15.0097106 1.30488282,13.6750072 1.30488282,12.2326171 C1.30488282,10.6671796 1.63300454,9.27608026 2.28925782,8.0592773 C2.94551111,6.84247434 3.90595072,5.9093782 5.17060548,5.25996089 C6.13447749,4.76093496 7.33417252,4.51142573 8.76972657,4.51142573 C10.6359468,4.51142573 12.0936959,4.90277924 13.1430176,5.685498 C14.1923392,6.46821676 14.8673813,7.54999305 15.1681641,8.93085933 L12.1535156,9.49482417 C11.9416005,8.75653923 11.5434111,8.17378139 10.9589356,7.74653316 C10.37446,7.31928493 9.64473095,7.10566401 8.76972657,7.10566401 C7.44354807,7.10566401 6.38911525,7.52606997 5.6063965,8.36689448 C4.82367774,9.207719 4.43232423,10.4552651 4.43232423,12.1095703 C4.43232423,13.8937589 4.82880464,15.2318803 5.62177736,16.1239746 C6.41475007,17.0160689 7.45380218,17.4621093 8.73896486,17.4621093 C9.37471022,17.4621093 10.012155,17.3373547 10.6513184,17.0878417 C11.2904817,16.8383288 11.8390602,16.5358416 12.2970703,16.180371 L12.2970703,14.2731445 L8.82099611,14.2731445 Z" id="G"></path>
        </g>
    </g>
</svg>