<?xml version="1.0" encoding="UTF-8"?>
<svg width="15px" height="17px" viewBox="0 0 15 17" version="1.1" xmlns="http://www.w3.org/2000/svg" xmlns:xlink="http://www.w3.org/1999/xlink">
    <!-- Generator: Sketch 44.1 (41455) - http://www.bohemiancoding.com/sketch -->
    <title>T</title>
    <desc>Created with Sketch.</desc>
    <defs></defs>
    <g id="Page-1" stroke="none" stroke-width="1" fill="none" fill-rule="evenodd">
        <path d="M0.682791658,0.4296875 L14.6375208,0.4296875 L14.6601562,5.1038993 L13.9924117,5.1038993 C13.7736017,3.43641589 13.1473616,2.30842933 12.1136728,1.71990577 C11.5326944,1.3954633 10.6650125,1.21815437 9.51060087,1.18797368 L9.51060087,13.3884587 C9.51060087,14.2410634 9.65961582,14.8069429 9.95765019,15.0861143 C10.2556846,15.3652858 10.8762658,15.5048694 11.8194125,15.5048694 L11.8194125,16.09339 L3.55748851,16.09339 L3.55748851,15.5048694 C4.46290936,15.5048694 5.06462795,15.3633995 5.36266231,15.0804555 C5.66069668,14.7975115 5.80971163,14.2335182 5.80971163,13.3884587 L5.80971163,1.18797368 C4.67793555,1.21815437 3.81025358,1.3954633 3.20663968,1.71990577 C2.09749913,2.32351967 1.4712591,3.45150624 1.32790079,5.1038993 L0.66015625,5.1038993 L0.682791658,0.4296875 Z" id="T" fill="#FFFFFF"></path>
    </g>
</svg>